<?xml version="1.0" encoding="utf-8" standalone="no"?>
<!DOCTYPE svg PUBLIC "-//W3C//DTD SVG 1.1//EN"
  "http://www.w3.org/Graphics/SVG/1.1/DTD/svg11.dtd">
<!-- Created with matplotlib (https://matplotlib.org/) -->
<svg height="345.6pt" version="1.1" viewBox="0 0 460.8 345.6" width="460.8pt" xmlns="http://www.w3.org/2000/svg" xmlns:xlink="http://www.w3.org/1999/xlink">
 <metadata>
  <rdf:RDF xmlns:cc="http://creativecommons.org/ns#" xmlns:dc="http://purl.org/dc/elements/1.1/" xmlns:rdf="http://www.w3.org/1999/02/22-rdf-syntax-ns#">
   <cc:Work>
    <dc:type rdf:resource="http://purl.org/dc/dcmitype/StillImage"/>
    <dc:date>2020-09-05T13:27:38.283843</dc:date>
    <dc:format>image/svg+xml</dc:format>
    <dc:creator>
     <cc:Agent>
      <dc:title>Matplotlib v3.3.0, https://matplotlib.org/</dc:title>
     </cc:Agent>
    </dc:creator>
   </cc:Work>
  </rdf:RDF>
 </metadata>
 <defs>
  <style type="text/css">*{stroke-linecap:butt;stroke-linejoin:round;}</style>
 </defs>
 <g id="figure_1">
  <g id="patch_1">
   <path d="M 0 345.6 
L 460.8 345.6 
L 460.8 0 
L 0 0 
z
" style="fill:#ffffff;"/>
  </g>
  <g id="axes_1">
   <g id="patch_2">
    <path d="M 57.6 307.584 
L 414.72 307.584 
L 414.72 41.472 
L 57.6 41.472 
z
" style="fill:#ffffff;"/>
   </g>
   <g id="matplotlib.axis_1">
    <g id="xtick_1">
     <g id="line2d_1">
      <defs>
       <path d="M 0 0 
L 0 3.5 
" id="m3eb4a74fdd" style="stroke:#000000;stroke-width:0.8;"/>
      </defs>
      <g>
       <use style="stroke:#000000;stroke-width:0.8;" x="73.832727" xlink:href="#m3eb4a74fdd" y="307.584"/>
      </g>
     </g>
     <g id="text_1">
      <!-- 0.3 -->
      <g transform="translate(65.881165 322.182437)scale(0.1 -0.1)">
       <defs>
        <path d="M 31.78125 66.40625 
Q 24.171875 66.40625 20.328125 58.90625 
Q 16.5 51.421875 16.5 36.375 
Q 16.5 21.390625 20.328125 13.890625 
Q 24.171875 6.390625 31.78125 6.390625 
Q 39.453125 6.390625 43.28125 13.890625 
Q 47.125 21.390625 47.125 36.375 
Q 47.125 51.421875 43.28125 58.90625 
Q 39.453125 66.40625 31.78125 66.40625 
z
M 31.78125 74.21875 
Q 44.046875 74.21875 50.515625 64.515625 
Q 56.984375 54.828125 56.984375 36.375 
Q 56.984375 17.96875 50.515625 8.265625 
Q 44.046875 -1.421875 31.78125 -1.421875 
Q 19.53125 -1.421875 13.0625 8.265625 
Q 6.59375 17.96875 6.59375 36.375 
Q 6.59375 54.828125 13.0625 64.515625 
Q 19.53125 74.21875 31.78125 74.21875 
z
" id="DejaVuSans-48"/>
        <path d="M 10.6875 12.40625 
L 21 12.40625 
L 21 0 
L 10.6875 0 
z
" id="DejaVuSans-46"/>
        <path d="M 40.578125 39.3125 
Q 47.65625 37.796875 51.625 33 
Q 55.609375 28.21875 55.609375 21.1875 
Q 55.609375 10.40625 48.1875 4.484375 
Q 40.765625 -1.421875 27.09375 -1.421875 
Q 22.515625 -1.421875 17.65625 -0.515625 
Q 12.796875 0.390625 7.625 2.203125 
L 7.625 11.71875 
Q 11.71875 9.328125 16.59375 8.109375 
Q 21.484375 6.890625 26.8125 6.890625 
Q 36.078125 6.890625 40.9375 10.546875 
Q 45.796875 14.203125 45.796875 21.1875 
Q 45.796875 27.640625 41.28125 31.265625 
Q 36.765625 34.90625 28.71875 34.90625 
L 20.21875 34.90625 
L 20.21875 43.015625 
L 29.109375 43.015625 
Q 36.375 43.015625 40.234375 45.921875 
Q 44.09375 48.828125 44.09375 54.296875 
Q 44.09375 59.90625 40.109375 62.90625 
Q 36.140625 65.921875 28.71875 65.921875 
Q 24.65625 65.921875 20.015625 65.03125 
Q 15.375 64.15625 9.8125 62.3125 
L 9.8125 71.09375 
Q 15.4375 72.65625 20.34375 73.4375 
Q 25.25 74.21875 29.59375 74.21875 
Q 40.828125 74.21875 47.359375 69.109375 
Q 53.90625 64.015625 53.90625 55.328125 
Q 53.90625 49.265625 50.4375 45.09375 
Q 46.96875 40.921875 40.578125 39.3125 
z
" id="DejaVuSans-51"/>
       </defs>
       <use xlink:href="#DejaVuSans-48"/>
       <use x="63.623047" xlink:href="#DejaVuSans-46"/>
       <use x="95.410156" xlink:href="#DejaVuSans-51"/>
      </g>
     </g>
    </g>
    <g id="xtick_2">
     <g id="line2d_2">
      <g>
       <use style="stroke:#000000;stroke-width:0.8;" x="123.77958" xlink:href="#m3eb4a74fdd" y="307.584"/>
      </g>
     </g>
     <g id="text_2">
      <!-- 0.4 -->
      <g transform="translate(115.828018 322.182437)scale(0.1 -0.1)">
       <defs>
        <path d="M 37.796875 64.3125 
L 12.890625 25.390625 
L 37.796875 25.390625 
z
M 35.203125 72.90625 
L 47.609375 72.90625 
L 47.609375 25.390625 
L 58.015625 25.390625 
L 58.015625 17.1875 
L 47.609375 17.1875 
L 47.609375 0 
L 37.796875 0 
L 37.796875 17.1875 
L 4.890625 17.1875 
L 4.890625 26.703125 
z
" id="DejaVuSans-52"/>
       </defs>
       <use xlink:href="#DejaVuSans-48"/>
       <use x="63.623047" xlink:href="#DejaVuSans-46"/>
       <use x="95.410156" xlink:href="#DejaVuSans-52"/>
      </g>
     </g>
    </g>
    <g id="xtick_3">
     <g id="line2d_3">
      <g>
       <use style="stroke:#000000;stroke-width:0.8;" x="173.726434" xlink:href="#m3eb4a74fdd" y="307.584"/>
      </g>
     </g>
     <g id="text_3">
      <!-- 0.5 -->
      <g transform="translate(165.774871 322.182437)scale(0.1 -0.1)">
       <defs>
        <path d="M 10.796875 72.90625 
L 49.515625 72.90625 
L 49.515625 64.59375 
L 19.828125 64.59375 
L 19.828125 46.734375 
Q 21.96875 47.46875 24.109375 47.828125 
Q 26.265625 48.1875 28.421875 48.1875 
Q 40.625 48.1875 47.75 41.5 
Q 54.890625 34.8125 54.890625 23.390625 
Q 54.890625 11.625 47.5625 5.09375 
Q 40.234375 -1.421875 26.90625 -1.421875 
Q 22.3125 -1.421875 17.546875 -0.640625 
Q 12.796875 0.140625 7.71875 1.703125 
L 7.71875 11.625 
Q 12.109375 9.234375 16.796875 8.0625 
Q 21.484375 6.890625 26.703125 6.890625 
Q 35.15625 6.890625 40.078125 11.328125 
Q 45.015625 15.765625 45.015625 23.390625 
Q 45.015625 31 40.078125 35.4375 
Q 35.15625 39.890625 26.703125 39.890625 
Q 22.75 39.890625 18.8125 39.015625 
Q 14.890625 38.140625 10.796875 36.28125 
z
" id="DejaVuSans-53"/>
       </defs>
       <use xlink:href="#DejaVuSans-48"/>
       <use x="63.623047" xlink:href="#DejaVuSans-46"/>
       <use x="95.410156" xlink:href="#DejaVuSans-53"/>
      </g>
     </g>
    </g>
    <g id="xtick_4">
     <g id="line2d_4">
      <g>
       <use style="stroke:#000000;stroke-width:0.8;" x="223.673287" xlink:href="#m3eb4a74fdd" y="307.584"/>
      </g>
     </g>
     <g id="text_4">
      <!-- 0.6 -->
      <g transform="translate(215.721724 322.182437)scale(0.1 -0.1)">
       <defs>
        <path d="M 33.015625 40.375 
Q 26.375 40.375 22.484375 35.828125 
Q 18.609375 31.296875 18.609375 23.390625 
Q 18.609375 15.53125 22.484375 10.953125 
Q 26.375 6.390625 33.015625 6.390625 
Q 39.65625 6.390625 43.53125 10.953125 
Q 47.40625 15.53125 47.40625 23.390625 
Q 47.40625 31.296875 43.53125 35.828125 
Q 39.65625 40.375 33.015625 40.375 
z
M 52.59375 71.296875 
L 52.59375 62.3125 
Q 48.875 64.0625 45.09375 64.984375 
Q 41.3125 65.921875 37.59375 65.921875 
Q 27.828125 65.921875 22.671875 59.328125 
Q 17.53125 52.734375 16.796875 39.40625 
Q 19.671875 43.65625 24.015625 45.921875 
Q 28.375 48.1875 33.59375 48.1875 
Q 44.578125 48.1875 50.953125 41.515625 
Q 57.328125 34.859375 57.328125 23.390625 
Q 57.328125 12.15625 50.6875 5.359375 
Q 44.046875 -1.421875 33.015625 -1.421875 
Q 20.359375 -1.421875 13.671875 8.265625 
Q 6.984375 17.96875 6.984375 36.375 
Q 6.984375 53.65625 15.1875 63.9375 
Q 23.390625 74.21875 37.203125 74.21875 
Q 40.921875 74.21875 44.703125 73.484375 
Q 48.484375 72.75 52.59375 71.296875 
z
" id="DejaVuSans-54"/>
       </defs>
       <use xlink:href="#DejaVuSans-48"/>
       <use x="63.623047" xlink:href="#DejaVuSans-46"/>
       <use x="95.410156" xlink:href="#DejaVuSans-54"/>
      </g>
     </g>
    </g>
    <g id="xtick_5">
     <g id="line2d_5">
      <g>
       <use style="stroke:#000000;stroke-width:0.8;" x="273.62014" xlink:href="#m3eb4a74fdd" y="307.584"/>
      </g>
     </g>
     <g id="text_5">
      <!-- 0.7 -->
      <g transform="translate(265.668577 322.182437)scale(0.1 -0.1)">
       <defs>
        <path d="M 8.203125 72.90625 
L 55.078125 72.90625 
L 55.078125 68.703125 
L 28.609375 0 
L 18.3125 0 
L 43.21875 64.59375 
L 8.203125 64.59375 
z
" id="DejaVuSans-55"/>
       </defs>
       <use xlink:href="#DejaVuSans-48"/>
       <use x="63.623047" xlink:href="#DejaVuSans-46"/>
       <use x="95.410156" xlink:href="#DejaVuSans-55"/>
      </g>
     </g>
    </g>
    <g id="xtick_6">
     <g id="line2d_6">
      <g>
       <use style="stroke:#000000;stroke-width:0.8;" x="323.566993" xlink:href="#m3eb4a74fdd" y="307.584"/>
      </g>
     </g>
     <g id="text_6">
      <!-- 0.8 -->
      <g transform="translate(315.615431 322.182437)scale(0.1 -0.1)">
       <defs>
        <path d="M 31.78125 34.625 
Q 24.75 34.625 20.71875 30.859375 
Q 16.703125 27.09375 16.703125 20.515625 
Q 16.703125 13.921875 20.71875 10.15625 
Q 24.75 6.390625 31.78125 6.390625 
Q 38.8125 6.390625 42.859375 10.171875 
Q 46.921875 13.96875 46.921875 20.515625 
Q 46.921875 27.09375 42.890625 30.859375 
Q 38.875 34.625 31.78125 34.625 
z
M 21.921875 38.8125 
Q 15.578125 40.375 12.03125 44.71875 
Q 8.5 49.078125 8.5 55.328125 
Q 8.5 64.0625 14.71875 69.140625 
Q 20.953125 74.21875 31.78125 74.21875 
Q 42.671875 74.21875 48.875 69.140625 
Q 55.078125 64.0625 55.078125 55.328125 
Q 55.078125 49.078125 51.53125 44.71875 
Q 48 40.375 41.703125 38.8125 
Q 48.828125 37.15625 52.796875 32.3125 
Q 56.78125 27.484375 56.78125 20.515625 
Q 56.78125 9.90625 50.3125 4.234375 
Q 43.84375 -1.421875 31.78125 -1.421875 
Q 19.734375 -1.421875 13.25 4.234375 
Q 6.78125 9.90625 6.78125 20.515625 
Q 6.78125 27.484375 10.78125 32.3125 
Q 14.796875 37.15625 21.921875 38.8125 
z
M 18.3125 54.390625 
Q 18.3125 48.734375 21.84375 45.5625 
Q 25.390625 42.390625 31.78125 42.390625 
Q 38.140625 42.390625 41.71875 45.5625 
Q 45.3125 48.734375 45.3125 54.390625 
Q 45.3125 60.0625 41.71875 63.234375 
Q 38.140625 66.40625 31.78125 66.40625 
Q 25.390625 66.40625 21.84375 63.234375 
Q 18.3125 60.0625 18.3125 54.390625 
z
" id="DejaVuSans-56"/>
       </defs>
       <use xlink:href="#DejaVuSans-48"/>
       <use x="63.623047" xlink:href="#DejaVuSans-46"/>
       <use x="95.410156" xlink:href="#DejaVuSans-56"/>
      </g>
     </g>
    </g>
    <g id="xtick_7">
     <g id="line2d_7">
      <g>
       <use style="stroke:#000000;stroke-width:0.8;" x="373.513846" xlink:href="#m3eb4a74fdd" y="307.584"/>
      </g>
     </g>
     <g id="text_7">
      <!-- 0.9 -->
      <g transform="translate(365.562284 322.182437)scale(0.1 -0.1)">
       <defs>
        <path d="M 10.984375 1.515625 
L 10.984375 10.5 
Q 14.703125 8.734375 18.5 7.8125 
Q 22.3125 6.890625 25.984375 6.890625 
Q 35.75 6.890625 40.890625 13.453125 
Q 46.046875 20.015625 46.78125 33.40625 
Q 43.953125 29.203125 39.59375 26.953125 
Q 35.25 24.703125 29.984375 24.703125 
Q 19.046875 24.703125 12.671875 31.3125 
Q 6.296875 37.9375 6.296875 49.421875 
Q 6.296875 60.640625 12.9375 67.421875 
Q 19.578125 74.21875 30.609375 74.21875 
Q 43.265625 74.21875 49.921875 64.515625 
Q 56.59375 54.828125 56.59375 36.375 
Q 56.59375 19.140625 48.40625 8.859375 
Q 40.234375 -1.421875 26.421875 -1.421875 
Q 22.703125 -1.421875 18.890625 -0.6875 
Q 15.09375 0.046875 10.984375 1.515625 
z
M 30.609375 32.421875 
Q 37.25 32.421875 41.125 36.953125 
Q 45.015625 41.5 45.015625 49.421875 
Q 45.015625 57.28125 41.125 61.84375 
Q 37.25 66.40625 30.609375 66.40625 
Q 23.96875 66.40625 20.09375 61.84375 
Q 16.21875 57.28125 16.21875 49.421875 
Q 16.21875 41.5 20.09375 36.953125 
Q 23.96875 32.421875 30.609375 32.421875 
z
" id="DejaVuSans-57"/>
       </defs>
       <use xlink:href="#DejaVuSans-48"/>
       <use x="63.623047" xlink:href="#DejaVuSans-46"/>
       <use x="95.410156" xlink:href="#DejaVuSans-57"/>
      </g>
     </g>
    </g>
    <g id="text_8">
     <!-- task speedup -->
     <g transform="translate(202.5975 335.860562)scale(0.1 -0.1)">
      <defs>
       <path d="M 18.3125 70.21875 
L 18.3125 54.6875 
L 36.8125 54.6875 
L 36.8125 47.703125 
L 18.3125 47.703125 
L 18.3125 18.015625 
Q 18.3125 11.328125 20.140625 9.421875 
Q 21.96875 7.515625 27.59375 7.515625 
L 36.8125 7.515625 
L 36.8125 0 
L 27.59375 0 
Q 17.1875 0 13.234375 3.875 
Q 9.28125 7.765625 9.28125 18.015625 
L 9.28125 47.703125 
L 2.6875 47.703125 
L 2.6875 54.6875 
L 9.28125 54.6875 
L 9.28125 70.21875 
z
" id="DejaVuSans-116"/>
       <path d="M 34.28125 27.484375 
Q 23.390625 27.484375 19.1875 25 
Q 14.984375 22.515625 14.984375 16.5 
Q 14.984375 11.71875 18.140625 8.90625 
Q 21.296875 6.109375 26.703125 6.109375 
Q 34.1875 6.109375 38.703125 11.40625 
Q 43.21875 16.703125 43.21875 25.484375 
L 43.21875 27.484375 
z
M 52.203125 31.203125 
L 52.203125 0 
L 43.21875 0 
L 43.21875 8.296875 
Q 40.140625 3.328125 35.546875 0.953125 
Q 30.953125 -1.421875 24.3125 -1.421875 
Q 15.921875 -1.421875 10.953125 3.296875 
Q 6 8.015625 6 15.921875 
Q 6 25.140625 12.171875 29.828125 
Q 18.359375 34.515625 30.609375 34.515625 
L 43.21875 34.515625 
L 43.21875 35.40625 
Q 43.21875 41.609375 39.140625 45 
Q 35.0625 48.390625 27.6875 48.390625 
Q 23 48.390625 18.546875 47.265625 
Q 14.109375 46.140625 10.015625 43.890625 
L 10.015625 52.203125 
Q 14.9375 54.109375 19.578125 55.046875 
Q 24.21875 56 28.609375 56 
Q 40.484375 56 46.34375 49.84375 
Q 52.203125 43.703125 52.203125 31.203125 
z
" id="DejaVuSans-97"/>
       <path d="M 44.28125 53.078125 
L 44.28125 44.578125 
Q 40.484375 46.53125 36.375 47.5 
Q 32.28125 48.484375 27.875 48.484375 
Q 21.1875 48.484375 17.84375 46.4375 
Q 14.5 44.390625 14.5 40.28125 
Q 14.5 37.15625 16.890625 35.375 
Q 19.28125 33.59375 26.515625 31.984375 
L 29.59375 31.296875 
Q 39.15625 29.25 43.1875 25.515625 
Q 47.21875 21.78125 47.21875 15.09375 
Q 47.21875 7.46875 41.1875 3.015625 
Q 35.15625 -1.421875 24.609375 -1.421875 
Q 20.21875 -1.421875 15.453125 -0.5625 
Q 10.6875 0.296875 5.421875 2 
L 5.421875 11.28125 
Q 10.40625 8.6875 15.234375 7.390625 
Q 20.0625 6.109375 24.8125 6.109375 
Q 31.15625 6.109375 34.5625 8.28125 
Q 37.984375 10.453125 37.984375 14.40625 
Q 37.984375 18.0625 35.515625 20.015625 
Q 33.0625 21.96875 24.703125 23.78125 
L 21.578125 24.515625 
Q 13.234375 26.265625 9.515625 29.90625 
Q 5.8125 33.546875 5.8125 39.890625 
Q 5.8125 47.609375 11.28125 51.796875 
Q 16.75 56 26.8125 56 
Q 31.78125 56 36.171875 55.265625 
Q 40.578125 54.546875 44.28125 53.078125 
z
" id="DejaVuSans-115"/>
       <path d="M 9.078125 75.984375 
L 18.109375 75.984375 
L 18.109375 31.109375 
L 44.921875 54.6875 
L 56.390625 54.6875 
L 27.390625 29.109375 
L 57.625 0 
L 45.90625 0 
L 18.109375 26.703125 
L 18.109375 0 
L 9.078125 0 
z
" id="DejaVuSans-107"/>
       <path id="DejaVuSans-32"/>
       <path d="M 18.109375 8.203125 
L 18.109375 -20.796875 
L 9.078125 -20.796875 
L 9.078125 54.6875 
L 18.109375 54.6875 
L 18.109375 46.390625 
Q 20.953125 51.265625 25.265625 53.625 
Q 29.59375 56 35.59375 56 
Q 45.5625 56 51.78125 48.09375 
Q 58.015625 40.1875 58.015625 27.296875 
Q 58.015625 14.40625 51.78125 6.484375 
Q 45.5625 -1.421875 35.59375 -1.421875 
Q 29.59375 -1.421875 25.265625 0.953125 
Q 20.953125 3.328125 18.109375 8.203125 
z
M 48.6875 27.296875 
Q 48.6875 37.203125 44.609375 42.84375 
Q 40.53125 48.484375 33.40625 48.484375 
Q 26.265625 48.484375 22.1875 42.84375 
Q 18.109375 37.203125 18.109375 27.296875 
Q 18.109375 17.390625 22.1875 11.75 
Q 26.265625 6.109375 33.40625 6.109375 
Q 40.53125 6.109375 44.609375 11.75 
Q 48.6875 17.390625 48.6875 27.296875 
z
" id="DejaVuSans-112"/>
       <path d="M 56.203125 29.59375 
L 56.203125 25.203125 
L 14.890625 25.203125 
Q 15.484375 15.921875 20.484375 11.0625 
Q 25.484375 6.203125 34.421875 6.203125 
Q 39.59375 6.203125 44.453125 7.46875 
Q 49.3125 8.734375 54.109375 11.28125 
L 54.109375 2.78125 
Q 49.265625 0.734375 44.1875 -0.34375 
Q 39.109375 -1.421875 33.890625 -1.421875 
Q 20.796875 -1.421875 13.15625 6.1875 
Q 5.515625 13.8125 5.515625 26.8125 
Q 5.515625 40.234375 12.765625 48.109375 
Q 20.015625 56 32.328125 56 
Q 43.359375 56 49.78125 48.890625 
Q 56.203125 41.796875 56.203125 29.59375 
z
M 47.21875 32.234375 
Q 47.125 39.59375 43.09375 43.984375 
Q 39.0625 48.390625 32.421875 48.390625 
Q 24.90625 48.390625 20.390625 44.140625 
Q 15.875 39.890625 15.1875 32.171875 
z
" id="DejaVuSans-101"/>
       <path d="M 45.40625 46.390625 
L 45.40625 75.984375 
L 54.390625 75.984375 
L 54.390625 0 
L 45.40625 0 
L 45.40625 8.203125 
Q 42.578125 3.328125 38.25 0.953125 
Q 33.9375 -1.421875 27.875 -1.421875 
Q 17.96875 -1.421875 11.734375 6.484375 
Q 5.515625 14.40625 5.515625 27.296875 
Q 5.515625 40.1875 11.734375 48.09375 
Q 17.96875 56 27.875 56 
Q 33.9375 56 38.25 53.625 
Q 42.578125 51.265625 45.40625 46.390625 
z
M 14.796875 27.296875 
Q 14.796875 17.390625 18.875 11.75 
Q 22.953125 6.109375 30.078125 6.109375 
Q 37.203125 6.109375 41.296875 11.75 
Q 45.40625 17.390625 45.40625 27.296875 
Q 45.40625 37.203125 41.296875 42.84375 
Q 37.203125 48.484375 30.078125 48.484375 
Q 22.953125 48.484375 18.875 42.84375 
Q 14.796875 37.203125 14.796875 27.296875 
z
" id="DejaVuSans-100"/>
       <path d="M 8.5 21.578125 
L 8.5 54.6875 
L 17.484375 54.6875 
L 17.484375 21.921875 
Q 17.484375 14.15625 20.5 10.265625 
Q 23.53125 6.390625 29.59375 6.390625 
Q 36.859375 6.390625 41.078125 11.03125 
Q 45.3125 15.671875 45.3125 23.6875 
L 45.3125 54.6875 
L 54.296875 54.6875 
L 54.296875 0 
L 45.3125 0 
L 45.3125 8.40625 
Q 42.046875 3.421875 37.71875 1 
Q 33.40625 -1.421875 27.6875 -1.421875 
Q 18.265625 -1.421875 13.375 4.4375 
Q 8.5 10.296875 8.5 21.578125 
z
M 31.109375 56 
z
" id="DejaVuSans-117"/>
      </defs>
      <use xlink:href="#DejaVuSans-116"/>
      <use x="39.208984" xlink:href="#DejaVuSans-97"/>
      <use x="100.488281" xlink:href="#DejaVuSans-115"/>
      <use x="152.587891" xlink:href="#DejaVuSans-107"/>
      <use x="210.498047" xlink:href="#DejaVuSans-32"/>
      <use x="242.285156" xlink:href="#DejaVuSans-115"/>
      <use x="294.384766" xlink:href="#DejaVuSans-112"/>
      <use x="357.861328" xlink:href="#DejaVuSans-101"/>
      <use x="419.384766" xlink:href="#DejaVuSans-101"/>
      <use x="480.908203" xlink:href="#DejaVuSans-100"/>
      <use x="544.384766" xlink:href="#DejaVuSans-117"/>
      <use x="607.763672" xlink:href="#DejaVuSans-112"/>
     </g>
    </g>
   </g>
   <g id="matplotlib.axis_2">
    <g id="ytick_1">
     <g id="line2d_8">
      <defs>
       <path d="M 0 0 
L -3.5 0 
" id="m66bca981d3" style="stroke:#000000;stroke-width:0.8;"/>
      </defs>
      <g>
       <use style="stroke:#000000;stroke-width:0.8;" x="57.6" xlink:href="#m66bca981d3" y="273.925962"/>
      </g>
     </g>
     <g id="text_9">
      <!-- 0.8 -->
      <g transform="translate(34.696875 277.725181)scale(0.1 -0.1)">
       <use xlink:href="#DejaVuSans-48"/>
       <use x="63.623047" xlink:href="#DejaVuSans-46"/>
       <use x="95.410156" xlink:href="#DejaVuSans-56"/>
      </g>
     </g>
    </g>
    <g id="ytick_2">
     <g id="line2d_9">
      <g>
       <use style="stroke:#000000;stroke-width:0.8;" x="57.6" xlink:href="#m66bca981d3" y="230.199995"/>
      </g>
     </g>
     <g id="text_10">
      <!-- 0.9 -->
      <g transform="translate(34.696875 233.999214)scale(0.1 -0.1)">
       <use xlink:href="#DejaVuSans-48"/>
       <use x="63.623047" xlink:href="#DejaVuSans-46"/>
       <use x="95.410156" xlink:href="#DejaVuSans-57"/>
      </g>
     </g>
    </g>
    <g id="ytick_3">
     <g id="line2d_10">
      <g>
       <use style="stroke:#000000;stroke-width:0.8;" x="57.6" xlink:href="#m66bca981d3" y="186.474028"/>
      </g>
     </g>
     <g id="text_11">
      <!-- 1.0 -->
      <g transform="translate(34.696875 190.273247)scale(0.1 -0.1)">
       <defs>
        <path d="M 12.40625 8.296875 
L 28.515625 8.296875 
L 28.515625 63.921875 
L 10.984375 60.40625 
L 10.984375 69.390625 
L 28.421875 72.90625 
L 38.28125 72.90625 
L 38.28125 8.296875 
L 54.390625 8.296875 
L 54.390625 0 
L 12.40625 0 
z
" id="DejaVuSans-49"/>
       </defs>
       <use xlink:href="#DejaVuSans-49"/>
       <use x="63.623047" xlink:href="#DejaVuSans-46"/>
       <use x="95.410156" xlink:href="#DejaVuSans-48"/>
      </g>
     </g>
    </g>
    <g id="ytick_4">
     <g id="line2d_11">
      <g>
       <use style="stroke:#000000;stroke-width:0.8;" x="57.6" xlink:href="#m66bca981d3" y="142.748061"/>
      </g>
     </g>
     <g id="text_12">
      <!-- 1.1 -->
      <g transform="translate(34.696875 146.54728)scale(0.1 -0.1)">
       <use xlink:href="#DejaVuSans-49"/>
       <use x="63.623047" xlink:href="#DejaVuSans-46"/>
       <use x="95.410156" xlink:href="#DejaVuSans-49"/>
      </g>
     </g>
    </g>
    <g id="ytick_5">
     <g id="line2d_12">
      <g>
       <use style="stroke:#000000;stroke-width:0.8;" x="57.6" xlink:href="#m66bca981d3" y="99.022094"/>
      </g>
     </g>
     <g id="text_13">
      <!-- 1.2 -->
      <g transform="translate(34.696875 102.821312)scale(0.1 -0.1)">
       <defs>
        <path d="M 19.1875 8.296875 
L 53.609375 8.296875 
L 53.609375 0 
L 7.328125 0 
L 7.328125 8.296875 
Q 12.9375 14.109375 22.625 23.890625 
Q 32.328125 33.6875 34.8125 36.53125 
Q 39.546875 41.84375 41.421875 45.53125 
Q 43.3125 49.21875 43.3125 52.78125 
Q 43.3125 58.59375 39.234375 62.25 
Q 35.15625 65.921875 28.609375 65.921875 
Q 23.96875 65.921875 18.8125 64.3125 
Q 13.671875 62.703125 7.8125 59.421875 
L 7.8125 69.390625 
Q 13.765625 71.78125 18.9375 73 
Q 24.125 74.21875 28.421875 74.21875 
Q 39.75 74.21875 46.484375 68.546875 
Q 53.21875 62.890625 53.21875 53.421875 
Q 53.21875 48.921875 51.53125 44.890625 
Q 49.859375 40.875 45.40625 35.40625 
Q 44.1875 33.984375 37.640625 27.21875 
Q 31.109375 20.453125 19.1875 8.296875 
z
" id="DejaVuSans-50"/>
       </defs>
       <use xlink:href="#DejaVuSans-49"/>
       <use x="63.623047" xlink:href="#DejaVuSans-46"/>
       <use x="95.410156" xlink:href="#DejaVuSans-50"/>
      </g>
     </g>
    </g>
    <g id="ytick_6">
     <g id="line2d_13">
      <g>
       <use style="stroke:#000000;stroke-width:0.8;" x="57.6" xlink:href="#m66bca981d3" y="55.296127"/>
      </g>
     </g>
     <g id="text_14">
      <!-- 1.3 -->
      <g transform="translate(34.696875 59.095345)scale(0.1 -0.1)">
       <use xlink:href="#DejaVuSans-49"/>
       <use x="63.623047" xlink:href="#DejaVuSans-46"/>
       <use x="95.410156" xlink:href="#DejaVuSans-51"/>
      </g>
     </g>
    </g>
    <g id="text_15">
     <!-- overall speedup -->
     <g transform="translate(28.617187 214.55925)rotate(-90)scale(0.1 -0.1)">
      <defs>
       <path d="M 30.609375 48.390625 
Q 23.390625 48.390625 19.1875 42.75 
Q 14.984375 37.109375 14.984375 27.296875 
Q 14.984375 17.484375 19.15625 11.84375 
Q 23.34375 6.203125 30.609375 6.203125 
Q 37.796875 6.203125 41.984375 11.859375 
Q 46.1875 17.53125 46.1875 27.296875 
Q 46.1875 37.015625 41.984375 42.703125 
Q 37.796875 48.390625 30.609375 48.390625 
z
M 30.609375 56 
Q 42.328125 56 49.015625 48.375 
Q 55.71875 40.765625 55.71875 27.296875 
Q 55.71875 13.875 49.015625 6.21875 
Q 42.328125 -1.421875 30.609375 -1.421875 
Q 18.84375 -1.421875 12.171875 6.21875 
Q 5.515625 13.875 5.515625 27.296875 
Q 5.515625 40.765625 12.171875 48.375 
Q 18.84375 56 30.609375 56 
z
" id="DejaVuSans-111"/>
       <path d="M 2.984375 54.6875 
L 12.5 54.6875 
L 29.59375 8.796875 
L 46.6875 54.6875 
L 56.203125 54.6875 
L 35.6875 0 
L 23.484375 0 
z
" id="DejaVuSans-118"/>
       <path d="M 41.109375 46.296875 
Q 39.59375 47.171875 37.8125 47.578125 
Q 36.03125 48 33.890625 48 
Q 26.265625 48 22.1875 43.046875 
Q 18.109375 38.09375 18.109375 28.8125 
L 18.109375 0 
L 9.078125 0 
L 9.078125 54.6875 
L 18.109375 54.6875 
L 18.109375 46.1875 
Q 20.953125 51.171875 25.484375 53.578125 
Q 30.03125 56 36.53125 56 
Q 37.453125 56 38.578125 55.875 
Q 39.703125 55.765625 41.0625 55.515625 
z
" id="DejaVuSans-114"/>
       <path d="M 9.421875 75.984375 
L 18.40625 75.984375 
L 18.40625 0 
L 9.421875 0 
z
" id="DejaVuSans-108"/>
      </defs>
      <use xlink:href="#DejaVuSans-111"/>
      <use x="61.181641" xlink:href="#DejaVuSans-118"/>
      <use x="120.361328" xlink:href="#DejaVuSans-101"/>
      <use x="181.884766" xlink:href="#DejaVuSans-114"/>
      <use x="222.998047" xlink:href="#DejaVuSans-97"/>
      <use x="284.277344" xlink:href="#DejaVuSans-108"/>
      <use x="312.060547" xlink:href="#DejaVuSans-108"/>
      <use x="339.84375" xlink:href="#DejaVuSans-32"/>
      <use x="371.630859" xlink:href="#DejaVuSans-115"/>
      <use x="423.730469" xlink:href="#DejaVuSans-112"/>
      <use x="487.207031" xlink:href="#DejaVuSans-101"/>
      <use x="548.730469" xlink:href="#DejaVuSans-101"/>
      <use x="610.253906" xlink:href="#DejaVuSans-100"/>
      <use x="673.730469" xlink:href="#DejaVuSans-117"/>
      <use x="737.109375" xlink:href="#DejaVuSans-112"/>
     </g>
    </g>
   </g>
   <g id="line2d_14">
    <path clip-path="url(#p50b1d40029)" d="M 73.832727 233.356919 
L 80.45833 235.18108 
L 87.083933 237.010647 
L 93.709536 238.610287 
L 100.335139 240.637613 
L 106.960742 242.421066 
L 113.586345 243.938061 
L 120.211948 245.025366 
L 126.837551 247.020802 
L 133.463154 249.297645 
L 140.088757 250.139758 
L 146.71436 252.116649 
L 153.339963 254.317704 
L 159.965566 255.953009 
L 166.591169 257.647246 
L 173.216772 259.143907 
L 179.842375 260.609422 
L 186.467978 262.240429 
L 193.093581 263.363026 
L 199.719184 265.409911 
L 206.344787 267.080239 
L 212.97039 268.400387 
L 219.595993 269.855335 
L 226.221596 271.294424 
L 232.847199 272.882052 
L 239.472801 274.661924 
L 246.098404 276.069076 
L 252.724007 277.380656 
L 259.34961 279.018086 
L 265.975213 280.509401 
L 272.600816 281.43285 
L 279.226419 282.251475 
L 285.852022 283.979179 
L 292.477625 284.897213 
L 299.103228 287.403969 
L 305.728831 288.736643 
L 312.354434 290.222445 
L 318.980037 291.137098 
L 325.60564 292.901018 
L 332.231243 294.246711 
L 338.856846 295.488 
L 345.482449 186.613682 
L 352.108052 186.471679 
L 358.733655 186.395656 
L 365.359258 186.438682 
L 371.984861 186.130997 
L 378.610464 186.436481 
L 385.236067 186.448975 
L 391.86167 186.532187 
L 398.487273 186.677416 
" style="fill:none;stroke:#0000ff;stroke-linecap:square;stroke-width:1.5;"/>
    <defs>
     <path d="M 0 3 
C 0.795609 3 1.55874 2.683901 2.12132 2.12132 
C 2.683901 1.55874 3 0.795609 3 0 
C 3 -0.795609 2.683901 -1.55874 2.12132 -2.12132 
C 1.55874 -2.683901 0.795609 -3 0 -3 
C -0.795609 -3 -1.55874 -2.683901 -2.12132 -2.12132 
C -2.683901 -1.55874 -3 -0.795609 -3 0 
C -3 0.795609 -2.683901 1.55874 -2.12132 2.12132 
C -1.55874 2.683901 -0.795609 3 0 3 
z
" id="m6550d887a6" style="stroke:#ffffff;stroke-width:0.75;"/>
    </defs>
    <g clip-path="url(#p50b1d40029)">
     <use style="fill:#0000ff;stroke:#ffffff;stroke-width:0.75;" x="73.832727" xlink:href="#m6550d887a6" y="233.356919"/>
     <use style="fill:#0000ff;stroke:#ffffff;stroke-width:0.75;" x="80.45833" xlink:href="#m6550d887a6" y="235.18108"/>
     <use style="fill:#0000ff;stroke:#ffffff;stroke-width:0.75;" x="87.083933" xlink:href="#m6550d887a6" y="237.010647"/>
     <use style="fill:#0000ff;stroke:#ffffff;stroke-width:0.75;" x="93.709536" xlink:href="#m6550d887a6" y="238.610287"/>
     <use style="fill:#0000ff;stroke:#ffffff;stroke-width:0.75;" x="100.335139" xlink:href="#m6550d887a6" y="240.637613"/>
     <use style="fill:#0000ff;stroke:#ffffff;stroke-width:0.75;" x="106.960742" xlink:href="#m6550d887a6" y="242.421066"/>
     <use style="fill:#0000ff;stroke:#ffffff;stroke-width:0.75;" x="113.586345" xlink:href="#m6550d887a6" y="243.938061"/>
     <use style="fill:#0000ff;stroke:#ffffff;stroke-width:0.75;" x="120.211948" xlink:href="#m6550d887a6" y="245.025366"/>
     <use style="fill:#0000ff;stroke:#ffffff;stroke-width:0.75;" x="126.837551" xlink:href="#m6550d887a6" y="247.020802"/>
     <use style="fill:#0000ff;stroke:#ffffff;stroke-width:0.75;" x="133.463154" xlink:href="#m6550d887a6" y="249.297645"/>
     <use style="fill:#0000ff;stroke:#ffffff;stroke-width:0.75;" x="140.088757" xlink:href="#m6550d887a6" y="250.139758"/>
     <use style="fill:#0000ff;stroke:#ffffff;stroke-width:0.75;" x="146.71436" xlink:href="#m6550d887a6" y="252.116649"/>
     <use style="fill:#0000ff;stroke:#ffffff;stroke-width:0.75;" x="153.339963" xlink:href="#m6550d887a6" y="254.317704"/>
     <use style="fill:#0000ff;stroke:#ffffff;stroke-width:0.75;" x="159.965566" xlink:href="#m6550d887a6" y="255.953009"/>
     <use style="fill:#0000ff;stroke:#ffffff;stroke-width:0.75;" x="166.591169" xlink:href="#m6550d887a6" y="257.647246"/>
     <use style="fill:#0000ff;stroke:#ffffff;stroke-width:0.75;" x="173.216772" xlink:href="#m6550d887a6" y="259.143907"/>
     <use style="fill:#0000ff;stroke:#ffffff;stroke-width:0.75;" x="179.842375" xlink:href="#m6550d887a6" y="260.609422"/>
     <use style="fill:#0000ff;stroke:#ffffff;stroke-width:0.75;" x="186.467978" xlink:href="#m6550d887a6" y="262.240429"/>
     <use style="fill:#0000ff;stroke:#ffffff;stroke-width:0.75;" x="193.093581" xlink:href="#m6550d887a6" y="263.363026"/>
     <use style="fill:#0000ff;stroke:#ffffff;stroke-width:0.75;" x="199.719184" xlink:href="#m6550d887a6" y="265.409911"/>
     <use style="fill:#0000ff;stroke:#ffffff;stroke-width:0.75;" x="206.344787" xlink:href="#m6550d887a6" y="267.080239"/>
     <use style="fill:#0000ff;stroke:#ffffff;stroke-width:0.75;" x="212.97039" xlink:href="#m6550d887a6" y="268.400387"/>
     <use style="fill:#0000ff;stroke:#ffffff;stroke-width:0.75;" x="219.595993" xlink:href="#m6550d887a6" y="269.855335"/>
     <use style="fill:#0000ff;stroke:#ffffff;stroke-width:0.75;" x="226.221596" xlink:href="#m6550d887a6" y="271.294424"/>
     <use style="fill:#0000ff;stroke:#ffffff;stroke-width:0.75;" x="232.847199" xlink:href="#m6550d887a6" y="272.882052"/>
     <use style="fill:#0000ff;stroke:#ffffff;stroke-width:0.75;" x="239.472801" xlink:href="#m6550d887a6" y="274.661924"/>
     <use style="fill:#0000ff;stroke:#ffffff;stroke-width:0.75;" x="246.098404" xlink:href="#m6550d887a6" y="276.069076"/>
     <use style="fill:#0000ff;stroke:#ffffff;stroke-width:0.75;" x="252.724007" xlink:href="#m6550d887a6" y="277.380656"/>
     <use style="fill:#0000ff;stroke:#ffffff;stroke-width:0.75;" x="259.34961" xlink:href="#m6550d887a6" y="279.018086"/>
     <use style="fill:#0000ff;stroke:#ffffff;stroke-width:0.75;" x="265.975213" xlink:href="#m6550d887a6" y="280.509401"/>
     <use style="fill:#0000ff;stroke:#ffffff;stroke-width:0.75;" x="272.600816" xlink:href="#m6550d887a6" y="281.43285"/>
     <use style="fill:#0000ff;stroke:#ffffff;stroke-width:0.75;" x="279.226419" xlink:href="#m6550d887a6" y="282.251475"/>
     <use style="fill:#0000ff;stroke:#ffffff;stroke-width:0.75;" x="285.852022" xlink:href="#m6550d887a6" y="283.979179"/>
     <use style="fill:#0000ff;stroke:#ffffff;stroke-width:0.75;" x="292.477625" xlink:href="#m6550d887a6" y="284.897213"/>
     <use style="fill:#0000ff;stroke:#ffffff;stroke-width:0.75;" x="299.103228" xlink:href="#m6550d887a6" y="287.403969"/>
     <use style="fill:#0000ff;stroke:#ffffff;stroke-width:0.75;" x="305.728831" xlink:href="#m6550d887a6" y="288.736643"/>
     <use style="fill:#0000ff;stroke:#ffffff;stroke-width:0.75;" x="312.354434" xlink:href="#m6550d887a6" y="290.222445"/>
     <use style="fill:#0000ff;stroke:#ffffff;stroke-width:0.75;" x="318.980037" xlink:href="#m6550d887a6" y="291.137098"/>
     <use style="fill:#0000ff;stroke:#ffffff;stroke-width:0.75;" x="325.60564" xlink:href="#m6550d887a6" y="292.901018"/>
     <use style="fill:#0000ff;stroke:#ffffff;stroke-width:0.75;" x="332.231243" xlink:href="#m6550d887a6" y="294.246711"/>
     <use style="fill:#0000ff;stroke:#ffffff;stroke-width:0.75;" x="338.856846" xlink:href="#m6550d887a6" y="295.488"/>
     <use style="fill:#0000ff;stroke:#ffffff;stroke-width:0.75;" x="345.482449" xlink:href="#m6550d887a6" y="186.613682"/>
     <use style="fill:#0000ff;stroke:#ffffff;stroke-width:0.75;" x="352.108052" xlink:href="#m6550d887a6" y="186.471679"/>
     <use style="fill:#0000ff;stroke:#ffffff;stroke-width:0.75;" x="358.733655" xlink:href="#m6550d887a6" y="186.395656"/>
     <use style="fill:#0000ff;stroke:#ffffff;stroke-width:0.75;" x="365.359258" xlink:href="#m6550d887a6" y="186.438682"/>
     <use style="fill:#0000ff;stroke:#ffffff;stroke-width:0.75;" x="371.984861" xlink:href="#m6550d887a6" y="186.130997"/>
     <use style="fill:#0000ff;stroke:#ffffff;stroke-width:0.75;" x="378.610464" xlink:href="#m6550d887a6" y="186.436481"/>
     <use style="fill:#0000ff;stroke:#ffffff;stroke-width:0.75;" x="385.236067" xlink:href="#m6550d887a6" y="186.448975"/>
     <use style="fill:#0000ff;stroke:#ffffff;stroke-width:0.75;" x="391.86167" xlink:href="#m6550d887a6" y="186.532187"/>
     <use style="fill:#0000ff;stroke:#ffffff;stroke-width:0.75;" x="398.487273" xlink:href="#m6550d887a6" y="186.677416"/>
    </g>
   </g>
   <g id="line2d_15">
    <path clip-path="url(#p50b1d40029)" d="M 73.832727 53.568 
L 80.45833 56.506695 
L 87.083933 59.562887 
L 93.709536 63.289907 
L 100.335139 65.835813 
L 106.960742 69.490912 
L 113.586345 72.32815 
L 120.211948 75.358691 
L 126.837551 78.458613 
L 133.463154 81.403094 
L 140.088757 84.542898 
L 146.71436 87.437772 
L 153.339963 90.371291 
L 159.965566 93.153408 
L 166.591169 95.987363 
L 173.216772 98.999174 
L 179.842375 101.433414 
L 186.467978 104.158445 
L 193.093581 107.016476 
L 199.719184 109.727095 
L 206.344787 112.478385 
L 212.97039 115.041233 
L 219.595993 117.640143 
L 226.221596 119.703746 
L 232.847199 122.898022 
L 239.472801 124.696602 
L 246.098404 127.475158 
L 252.724007 129.949195 
L 259.34961 132.318623 
L 265.975213 135.086456 
L 272.600816 137.666868 
L 279.226419 139.969281 
L 285.852022 142.321839 
L 292.477625 144.473765 
L 299.103228 146.816201 
L 305.728831 148.726539 
L 312.354434 150.90111 
L 318.980037 153.080868 
L 325.60564 155.753096 
L 332.231243 158.079509 
L 338.856846 160.416355 
L 345.482449 162.322668 
L 352.108052 164.775188 
L 358.733655 166.723017 
L 365.359258 168.733807 
L 371.984861 170.503181 
L 378.610464 173.074847 
L 385.236067 174.960805 
L 391.86167 177.023223 
L 398.487273 179.192894 
" style="fill:none;stroke:#008000;stroke-linecap:square;stroke-width:1.5;"/>
    <defs>
     <path d="M 0 3 
C 0.795609 3 1.55874 2.683901 2.12132 2.12132 
C 2.683901 1.55874 3 0.795609 3 0 
C 3 -0.795609 2.683901 -1.55874 2.12132 -2.12132 
C 1.55874 -2.683901 0.795609 -3 0 -3 
C -0.795609 -3 -1.55874 -2.683901 -2.12132 -2.12132 
C -2.683901 -1.55874 -3 -0.795609 -3 0 
C -3 0.795609 -2.683901 1.55874 -2.12132 2.12132 
C -1.55874 2.683901 -0.795609 3 0 3 
z
" id="m91c18d37d3" style="stroke:#ffffff;stroke-width:0.75;"/>
    </defs>
    <g clip-path="url(#p50b1d40029)">
     <use style="fill:#008000;stroke:#ffffff;stroke-width:0.75;" x="73.832727" xlink:href="#m91c18d37d3" y="53.568"/>
     <use style="fill:#008000;stroke:#ffffff;stroke-width:0.75;" x="80.45833" xlink:href="#m91c18d37d3" y="56.506695"/>
     <use style="fill:#008000;stroke:#ffffff;stroke-width:0.75;" x="87.083933" xlink:href="#m91c18d37d3" y="59.562887"/>
     <use style="fill:#008000;stroke:#ffffff;stroke-width:0.75;" x="93.709536" xlink:href="#m91c18d37d3" y="63.289907"/>
     <use style="fill:#008000;stroke:#ffffff;stroke-width:0.75;" x="100.335139" xlink:href="#m91c18d37d3" y="65.835813"/>
     <use style="fill:#008000;stroke:#ffffff;stroke-width:0.75;" x="106.960742" xlink:href="#m91c18d37d3" y="69.490912"/>
     <use style="fill:#008000;stroke:#ffffff;stroke-width:0.75;" x="113.586345" xlink:href="#m91c18d37d3" y="72.32815"/>
     <use style="fill:#008000;stroke:#ffffff;stroke-width:0.75;" x="120.211948" xlink:href="#m91c18d37d3" y="75.358691"/>
     <use style="fill:#008000;stroke:#ffffff;stroke-width:0.75;" x="126.837551" xlink:href="#m91c18d37d3" y="78.458613"/>
     <use style="fill:#008000;stroke:#ffffff;stroke-width:0.75;" x="133.463154" xlink:href="#m91c18d37d3" y="81.403094"/>
     <use style="fill:#008000;stroke:#ffffff;stroke-width:0.75;" x="140.088757" xlink:href="#m91c18d37d3" y="84.542898"/>
     <use style="fill:#008000;stroke:#ffffff;stroke-width:0.75;" x="146.71436" xlink:href="#m91c18d37d3" y="87.437772"/>
     <use style="fill:#008000;stroke:#ffffff;stroke-width:0.75;" x="153.339963" xlink:href="#m91c18d37d3" y="90.371291"/>
     <use style="fill:#008000;stroke:#ffffff;stroke-width:0.75;" x="159.965566" xlink:href="#m91c18d37d3" y="93.153408"/>
     <use style="fill:#008000;stroke:#ffffff;stroke-width:0.75;" x="166.591169" xlink:href="#m91c18d37d3" y="95.987363"/>
     <use style="fill:#008000;stroke:#ffffff;stroke-width:0.75;" x="173.216772" xlink:href="#m91c18d37d3" y="98.999174"/>
     <use style="fill:#008000;stroke:#ffffff;stroke-width:0.75;" x="179.842375" xlink:href="#m91c18d37d3" y="101.433414"/>
     <use style="fill:#008000;stroke:#ffffff;stroke-width:0.75;" x="186.467978" xlink:href="#m91c18d37d3" y="104.158445"/>
     <use style="fill:#008000;stroke:#ffffff;stroke-width:0.75;" x="193.093581" xlink:href="#m91c18d37d3" y="107.016476"/>
     <use style="fill:#008000;stroke:#ffffff;stroke-width:0.75;" x="199.719184" xlink:href="#m91c18d37d3" y="109.727095"/>
     <use style="fill:#008000;stroke:#ffffff;stroke-width:0.75;" x="206.344787" xlink:href="#m91c18d37d3" y="112.478385"/>
     <use style="fill:#008000;stroke:#ffffff;stroke-width:0.75;" x="212.97039" xlink:href="#m91c18d37d3" y="115.041233"/>
     <use style="fill:#008000;stroke:#ffffff;stroke-width:0.75;" x="219.595993" xlink:href="#m91c18d37d3" y="117.640143"/>
     <use style="fill:#008000;stroke:#ffffff;stroke-width:0.75;" x="226.221596" xlink:href="#m91c18d37d3" y="119.703746"/>
     <use style="fill:#008000;stroke:#ffffff;stroke-width:0.75;" x="232.847199" xlink:href="#m91c18d37d3" y="122.898022"/>
     <use style="fill:#008000;stroke:#ffffff;stroke-width:0.75;" x="239.472801" xlink:href="#m91c18d37d3" y="124.696602"/>
     <use style="fill:#008000;stroke:#ffffff;stroke-width:0.75;" x="246.098404" xlink:href="#m91c18d37d3" y="127.475158"/>
     <use style="fill:#008000;stroke:#ffffff;stroke-width:0.75;" x="252.724007" xlink:href="#m91c18d37d3" y="129.949195"/>
     <use style="fill:#008000;stroke:#ffffff;stroke-width:0.75;" x="259.34961" xlink:href="#m91c18d37d3" y="132.318623"/>
     <use style="fill:#008000;stroke:#ffffff;stroke-width:0.75;" x="265.975213" xlink:href="#m91c18d37d3" y="135.086456"/>
     <use style="fill:#008000;stroke:#ffffff;stroke-width:0.75;" x="272.600816" xlink:href="#m91c18d37d3" y="137.666868"/>
     <use style="fill:#008000;stroke:#ffffff;stroke-width:0.75;" x="279.226419" xlink:href="#m91c18d37d3" y="139.969281"/>
     <use style="fill:#008000;stroke:#ffffff;stroke-width:0.75;" x="285.852022" xlink:href="#m91c18d37d3" y="142.321839"/>
     <use style="fill:#008000;stroke:#ffffff;stroke-width:0.75;" x="292.477625" xlink:href="#m91c18d37d3" y="144.473765"/>
     <use style="fill:#008000;stroke:#ffffff;stroke-width:0.75;" x="299.103228" xlink:href="#m91c18d37d3" y="146.816201"/>
     <use style="fill:#008000;stroke:#ffffff;stroke-width:0.75;" x="305.728831" xlink:href="#m91c18d37d3" y="148.726539"/>
     <use style="fill:#008000;stroke:#ffffff;stroke-width:0.75;" x="312.354434" xlink:href="#m91c18d37d3" y="150.90111"/>
     <use style="fill:#008000;stroke:#ffffff;stroke-width:0.75;" x="318.980037" xlink:href="#m91c18d37d3" y="153.080868"/>
     <use style="fill:#008000;stroke:#ffffff;stroke-width:0.75;" x="325.60564" xlink:href="#m91c18d37d3" y="155.753096"/>
     <use style="fill:#008000;stroke:#ffffff;stroke-width:0.75;" x="332.231243" xlink:href="#m91c18d37d3" y="158.079509"/>
     <use style="fill:#008000;stroke:#ffffff;stroke-width:0.75;" x="338.856846" xlink:href="#m91c18d37d3" y="160.416355"/>
     <use style="fill:#008000;stroke:#ffffff;stroke-width:0.75;" x="345.482449" xlink:href="#m91c18d37d3" y="162.322668"/>
     <use style="fill:#008000;stroke:#ffffff;stroke-width:0.75;" x="352.108052" xlink:href="#m91c18d37d3" y="164.775188"/>
     <use style="fill:#008000;stroke:#ffffff;stroke-width:0.75;" x="358.733655" xlink:href="#m91c18d37d3" y="166.723017"/>
     <use style="fill:#008000;stroke:#ffffff;stroke-width:0.75;" x="365.359258" xlink:href="#m91c18d37d3" y="168.733807"/>
     <use style="fill:#008000;stroke:#ffffff;stroke-width:0.75;" x="371.984861" xlink:href="#m91c18d37d3" y="170.503181"/>
     <use style="fill:#008000;stroke:#ffffff;stroke-width:0.75;" x="378.610464" xlink:href="#m91c18d37d3" y="173.074847"/>
     <use style="fill:#008000;stroke:#ffffff;stroke-width:0.75;" x="385.236067" xlink:href="#m91c18d37d3" y="174.960805"/>
     <use style="fill:#008000;stroke:#ffffff;stroke-width:0.75;" x="391.86167" xlink:href="#m91c18d37d3" y="177.023223"/>
     <use style="fill:#008000;stroke:#ffffff;stroke-width:0.75;" x="398.487273" xlink:href="#m91c18d37d3" y="179.192894"/>
    </g>
   </g>
   <g id="line2d_16"/>
   <g id="line2d_17"/>
   <g id="line2d_18"/>
   <g id="patch_3">
    <path d="M 57.6 307.584 
L 57.6 41.472 
" style="fill:none;stroke:#000000;stroke-linecap:square;stroke-linejoin:miter;stroke-width:0.8;"/>
   </g>
   <g id="patch_4">
    <path d="M 414.72 307.584 
L 414.72 41.472 
" style="fill:none;stroke:#000000;stroke-linecap:square;stroke-linejoin:miter;stroke-width:0.8;"/>
   </g>
   <g id="patch_5">
    <path d="M 57.6 307.584 
L 414.72 307.584 
" style="fill:none;stroke:#000000;stroke-linecap:square;stroke-linejoin:miter;stroke-width:0.8;"/>
   </g>
   <g id="patch_6">
    <path d="M 57.6 41.472 
L 414.72 41.472 
" style="fill:none;stroke:#000000;stroke-linecap:square;stroke-linejoin:miter;stroke-width:0.8;"/>
   </g>
   <g id="legend_1">
    <g id="patch_7">
     <path d="M 312.321563 93.506375 
L 407.72 93.506375 
Q 409.72 93.506375 409.72 91.506375 
L 409.72 48.472 
Q 409.72 46.472 407.72 46.472 
L 312.321563 46.472 
Q 310.321563 46.472 310.321563 48.472 
L 310.321563 91.506375 
Q 310.321563 93.506375 312.321563 93.506375 
z
" style="fill:#ffffff;opacity:0.8;stroke:#cccccc;stroke-linejoin:miter;"/>
    </g>
    <g id="line2d_19">
     <path d="M 314.321563 54.570438 
L 334.321563 54.570438 
" style="fill:none;"/>
    </g>
    <g id="line2d_20"/>
    <g id="text_16">
     <!-- task -->
     <g transform="translate(342.321563 58.070438)scale(0.1 -0.1)">
      <use xlink:href="#DejaVuSans-116"/>
      <use x="39.208984" xlink:href="#DejaVuSans-97"/>
      <use x="100.488281" xlink:href="#DejaVuSans-115"/>
      <use x="152.587891" xlink:href="#DejaVuSans-107"/>
     </g>
    </g>
    <g id="line2d_21">
     <path d="M 314.321563 69.248563 
L 334.321563 69.248563 
" style="fill:none;stroke:#0000ff;stroke-linecap:square;stroke-width:1.5;"/>
    </g>
    <g id="line2d_22"/>
    <g id="text_17">
     <!-- compression -->
     <g transform="translate(342.321563 72.748563)scale(0.1 -0.1)">
      <defs>
       <path d="M 48.78125 52.59375 
L 48.78125 44.1875 
Q 44.96875 46.296875 41.140625 47.34375 
Q 37.3125 48.390625 33.40625 48.390625 
Q 24.65625 48.390625 19.8125 42.84375 
Q 14.984375 37.3125 14.984375 27.296875 
Q 14.984375 17.28125 19.8125 11.734375 
Q 24.65625 6.203125 33.40625 6.203125 
Q 37.3125 6.203125 41.140625 7.25 
Q 44.96875 8.296875 48.78125 10.40625 
L 48.78125 2.09375 
Q 45.015625 0.34375 40.984375 -0.53125 
Q 36.96875 -1.421875 32.421875 -1.421875 
Q 20.0625 -1.421875 12.78125 6.34375 
Q 5.515625 14.109375 5.515625 27.296875 
Q 5.515625 40.671875 12.859375 48.328125 
Q 20.21875 56 33.015625 56 
Q 37.15625 56 41.109375 55.140625 
Q 45.0625 54.296875 48.78125 52.59375 
z
" id="DejaVuSans-99"/>
       <path d="M 52 44.1875 
Q 55.375 50.25 60.0625 53.125 
Q 64.75 56 71.09375 56 
Q 79.640625 56 84.28125 50.015625 
Q 88.921875 44.046875 88.921875 33.015625 
L 88.921875 0 
L 79.890625 0 
L 79.890625 32.71875 
Q 79.890625 40.578125 77.09375 44.375 
Q 74.3125 48.1875 68.609375 48.1875 
Q 61.625 48.1875 57.5625 43.546875 
Q 53.515625 38.921875 53.515625 30.90625 
L 53.515625 0 
L 44.484375 0 
L 44.484375 32.71875 
Q 44.484375 40.625 41.703125 44.40625 
Q 38.921875 48.1875 33.109375 48.1875 
Q 26.21875 48.1875 22.15625 43.53125 
Q 18.109375 38.875 18.109375 30.90625 
L 18.109375 0 
L 9.078125 0 
L 9.078125 54.6875 
L 18.109375 54.6875 
L 18.109375 46.1875 
Q 21.1875 51.21875 25.484375 53.609375 
Q 29.78125 56 35.6875 56 
Q 41.65625 56 45.828125 52.96875 
Q 50 49.953125 52 44.1875 
z
" id="DejaVuSans-109"/>
       <path d="M 9.421875 54.6875 
L 18.40625 54.6875 
L 18.40625 0 
L 9.421875 0 
z
M 9.421875 75.984375 
L 18.40625 75.984375 
L 18.40625 64.59375 
L 9.421875 64.59375 
z
" id="DejaVuSans-105"/>
       <path d="M 54.890625 33.015625 
L 54.890625 0 
L 45.90625 0 
L 45.90625 32.71875 
Q 45.90625 40.484375 42.875 44.328125 
Q 39.84375 48.1875 33.796875 48.1875 
Q 26.515625 48.1875 22.3125 43.546875 
Q 18.109375 38.921875 18.109375 30.90625 
L 18.109375 0 
L 9.078125 0 
L 9.078125 54.6875 
L 18.109375 54.6875 
L 18.109375 46.1875 
Q 21.34375 51.125 25.703125 53.5625 
Q 30.078125 56 35.796875 56 
Q 45.21875 56 50.046875 50.171875 
Q 54.890625 44.34375 54.890625 33.015625 
z
" id="DejaVuSans-110"/>
      </defs>
      <use xlink:href="#DejaVuSans-99"/>
      <use x="54.980469" xlink:href="#DejaVuSans-111"/>
      <use x="116.162109" xlink:href="#DejaVuSans-109"/>
      <use x="213.574219" xlink:href="#DejaVuSans-112"/>
      <use x="277.050781" xlink:href="#DejaVuSans-114"/>
      <use x="315.914062" xlink:href="#DejaVuSans-101"/>
      <use x="377.4375" xlink:href="#DejaVuSans-115"/>
      <use x="429.537109" xlink:href="#DejaVuSans-115"/>
      <use x="481.636719" xlink:href="#DejaVuSans-105"/>
      <use x="509.419922" xlink:href="#DejaVuSans-111"/>
      <use x="570.601562" xlink:href="#DejaVuSans-110"/>
     </g>
    </g>
    <g id="line2d_23">
     <path d="M 314.321563 83.926688 
L 334.321563 83.926688 
" style="fill:none;stroke:#008000;stroke-linecap:square;stroke-width:1.5;"/>
    </g>
    <g id="line2d_24"/>
    <g id="text_18">
     <!-- save -->
     <g transform="translate(342.321563 87.426688)scale(0.1 -0.1)">
      <use xlink:href="#DejaVuSans-115"/>
      <use x="52.099609" xlink:href="#DejaVuSans-97"/>
      <use x="113.378906" xlink:href="#DejaVuSans-118"/>
      <use x="172.558594" xlink:href="#DejaVuSans-101"/>
     </g>
    </g>
   </g>
  </g>
 </g>
 <defs>
  <clipPath id="p50b1d40029">
   <rect height="266.112" width="357.12" x="57.6" y="41.472"/>
  </clipPath>
 </defs>
</svg>
